<?xml version="1.0" standalone="no"?>
<!DOCTYPE svg PUBLIC "-//W3C//DTD SVG 20010904//EN"
 "http://www.w3.org/TR/2001/REC-SVG-20010904/DTD/svg10.dtd">
<svg version="1.0" xmlns="http://www.w3.org/2000/svg"
 width="512.000000pt" height="512.000000pt" viewBox="0 0 512.000000 512.000000"
 preserveAspectRatio="xMidYMid meet">

<g transform="translate(0.000000,512.000000) scale(0.100000,-0.100000)"
fill="#000000" stroke="none">
<path d="M2540 4553 c-31 -11 -60 -47 -60 -73 0 -15 9 -39 21 -54 44 -56 139
-20 139 54 0 42 -61 87 -100 73z"/>
<path d="M1760 4460 c-41 -41 -35 -93 15 -126 48 -31 115 9 115 69 0 66 -84
103 -130 57z"/>
<path d="M3252 4457 c-43 -45 -20 -117 43 -133 47 -12 103 44 91 92 -16 63
-92 86 -134 41z"/>
<path d="M2458 4158 c-156 -164 -289 -347 -403 -555 l-62 -114 -84 69 c-177
146 -366 265 -556 352 -170 78 -184 72 -247 -98 -75 -204 -125 -422 -146 -637
-6 -60 -13 -111 -15 -113 -2 -2 -57 12 -122 31 -224 67 -473 107 -666 107
-103 0 -109 -1 -134 -26 l-26 -26 6 -132 c26 -535 195 -1008 510 -1431 96
-130 306 -348 432 -450 302 -244 672 -424 1047 -509 346 -79 790 -79 1136 0
375 85 745 265 1047 509 126 102 336 320 432 450 315 423 484 896 510 1431 l6
132 -26 26 c-25 25 -31 26 -129 26 -196 0 -448 -40 -671 -107 -65 -19 -120
-33 -122 -31 -3 3 -10 51 -15 109 -22 217 -73 441 -145 637 -64 175 -77 180
-248 102 -190 -87 -379 -206 -556 -352 l-84 -69 -62 114 c-114 208 -247 391
-403 555 -58 61 -74 72 -102 72 -28 0 -44 -11 -102 -72z m175 -212 c334 -383
536 -885 566 -1410 36 -611 -158 -1199 -548 -1668 -45 -54 -86 -98 -91 -98 -5
0 -46 44 -91 98 -329 395 -520 877 -548 1387 -32 551 117 1072 432 1519 74
105 193 246 207 246 5 0 38 -33 73 -74z m-1280 -217 c168 -84 382 -230 526
-358 l44 -39 -36 -109 c-102 -309 -145 -602 -133 -906 20 -494 160 -939 418
-1324 27 -40 46 -73 42 -73 -13 0 -172 117 -254 186 -88 75 -219 207 -328 332
-70 80 -97 89 -145 52 -53 -42 -45 -75 40 -183 130 -163 397 -402 571 -511 23
-14 42 -28 42 -30 0 -1 -46 7 -102 20 -471 106 -869 329 -1201 674 -300 311
-497 664 -601 1080 -36 143 -66 343 -66 441 l0 59 78 -6 c193 -14 444 -64 612
-123 l85 -29 7 -109 c21 -354 117 -699 285 -1026 62 -120 105 -150 161 -111
52 36 49 54 -37 233 -90 189 -140 324 -182 496 -52 213 -64 318 -63 565 0 240
12 351 60 550 25 107 82 290 90 290 2 0 41 -19 87 -41z m2536 -51 c104 -316
142 -658 110 -971 -11 -103 -10 -110 8 -135 45 -61 117 -50 140 20 7 21 16 94
20 163 l8 127 85 29 c168 59 419 109 613 123 l77 6 0 -59 c0 -98 -30 -298 -66
-441 -144 -573 -478 -1051 -974 -1396 -191 -133 -436 -250 -658 -315 -76 -23
-272 -68 -272 -63 0 2 35 27 78 55 258 174 485 400 670 668 95 137 209 354
269 511 42 110 93 272 93 297 0 36 -43 73 -84 73 -47 0 -69 -30 -102 -138
-134 -444 -420 -868 -779 -1156 -88 -71 -208 -156 -220 -156 -3 0 16 33 43 72
389 581 518 1337 346 2023 -14 55 -41 149 -61 208 l-36 109 44 39 c72 64 229
183 309 235 71 46 287 163 302 164 3 0 20 -42 37 -92z"/>
</g>
</svg>
