<svg xmlns="http://www.w3.org/2000/svg" xmlns:xlink="http://www.w3.org/1999/xlink" viewBox="0,0,256,256" width="24px" height="24px" fill-rule="nonzero"><g fill="none" fill-rule="nonzero" stroke="none" stroke-width="none" stroke-linecap="butt" stroke-linejoin="miter" stroke-miterlimit="10" stroke-dasharray="" stroke-dashoffset="0" font-family="none" font-weight="none" font-size="none" text-anchor="none" style="mix-blend-mode: normal"><g transform="scale(10.66667,10.66667)"><path d="M15.946,12.988c-0.69,0 -1.252,-0.562 -1.252,-1.252c0,-0.69 0.562,-1.252 1.252,-1.252c0.69,0 1.252,0.562 1.252,1.252c0,0.69 -0.561,1.252 -1.252,1.252zM15.946,10.984c-0.414,0 -0.751,0.337 -0.751,0.751c0,0.414 0.337,0.751 0.751,0.751c0.414,0 0.751,-0.337 0.751,-0.751c0,-0.414 -0.337,-0.751 -0.751,-0.751z" fill="#5c7cfa" stroke="none" stroke-width="1"></path><path d="M14.193,12.988h-0.334c-0.092,0 -0.167,-0.075 -0.167,-0.167v-2.839h0.501z" fill="#5c7cfa" stroke="none" stroke-width="1"></path><path d="M12.691,10.567v0.173c-0.21,-0.159 -0.468,-0.257 -0.751,-0.257c-0.69,0 -1.252,0.562 -1.252,1.252c0,0.69 0.562,1.252 1.252,1.252c0.283,0 0.541,-0.098 0.751,-0.257v0.09c0,0.092 0.075,0.167 0.167,0.167h0.334v-2.421h-0.501zM11.939,12.487c-0.414,0 -0.751,-0.337 -0.751,-0.751c0,-0.414 0.337,-0.751 0.751,-0.751c0.414,0 0.751,0.337 0.751,0.751c0,0.414 -0.337,0.751 -0.751,0.751z" fill="#5c7cfa" stroke="none" stroke-width="1"></path><path d="M10.771,9.982h-2.672v0.501h1.777l-1.86,2.171h0.009c-0.054,0.07 -0.092,0.155 -0.092,0.25v0.083h2.504c0.092,0 0.167,-0.075 0.167,-0.167v-0.334h-1.777l1.86,-2.171h-0.009c0.054,-0.07 0.092,-0.155 0.092,-0.25v-0.083z" fill="#5c7cfa" stroke="none" stroke-width="1"></path><rect x="4" y="4" width="16" height="16" fill="none" stroke="#5c7cfa" stroke-width="2"></rect><path d="M13.16,20.27c-1.748,0 -3.547,0.639 -5.088,-0.207l-3.397,-0.621l-0.386,-2.914c-1.077,-1.682 -0.718,-3.662 -0.718,-5.663c0,-2.367 -0.113,-4.637 1.365,-6.48l3.206,0.295c-2.328,1.105 -3.177,4.124 -3.177,5.991c0,3.087 1.472,4.79 1.472,4.79c0,0 0,0 -0.456,2.547l2.356,-0.573c0,0 2.292,1.564 4.663,1.564c5.198,0 6.385,-2.462 6.385,-2.462l0.229,2.526c-1.843,1.479 -4.089,1.207 -6.454,1.207z" fill="#5c7cfa" stroke="none" stroke-width="1"></path></g></g></svg>